# xmcd
#
# Track frame offsets:
#	150
#	16354
#	32736
#	49352
#	65975
#	78757
#	95782
#	112778
#	129418
#	143327
#	155409
#	171065
#	187113
#	201342
#	218155
#
# Disc length: 3149 seconds
#
# Revision: 2
# Processed by: cddbd v1.5.2PL0 Copyright (c) Steve Scherf et al.
# Submitted via: audiograbber 1.83.01
#
DISCID=d10c4b0f
DTITLE=Various Artist - CDX 534
DYEAR=2011
DGENRE=Country
TTITLE0=Jake Owen - Alone with You
TTITLE1=Brad Paisley - Camouflage
TTITLE2=Gloriana - (Kissed You) Goodnight
TTITLE3=The Farm Inc. Nashville - Home Sweet Home 
TTITLE4=Billy Currington - Like My Dog 
TTITLE5=Toby Keith - Red Solo Cup (Album)
TTITLE6=Toby Keith - Red Solo Cup (Edited) 
TTITLE7=Keith Urban - You Gonna Fly
TTITLE8=Lauren Briant - Who I Am With You
TTITLE9=Sherry Lynn - Breakin' Up Song
TTITLE10=Daniel Warren - Brent Creek
TTITLE11=Chris Webb - DJ Please
TTITLE12=David Bradley - If You Can't Make Money (Make Love)
TTITLE13=Ben Wasson - I Get The Blues When It Rains 
TTITLE14=Julie Ingram - Thank God
EXTD=
EXTT0=
EXTT1=
EXTT2=
EXTT3=
EXTT4=
EXTT5=
EXTT6=
EXTT7=
EXTT8=
EXTT9=
EXTT10=
EXTT11=
EXTT12=
EXTT13=
EXTT14=
PLAYORDER=
